<svg width="19" height="24" viewBox="0 0 19 24" fill="none" xmlns="http://www.w3.org/2000/svg">
<path d="M3.8 6.98182C3.56682 6.98182 3.37778 7.17718 3.37778 7.41818C3.37778 7.65918 3.56682 7.85455 3.8 7.85455H10.5556C10.7887 7.85455 10.9778 7.65918 10.9778 7.41818C10.9778 7.17718 10.7887 6.98182 10.5556 6.98182H3.8Z" fill="black"/>
<path d="M3.37778 11.7818C3.37778 11.5408 3.56682 11.3455 3.8 11.3455H8.44444C8.67763 11.3455 8.86667 11.5408 8.86667 11.7818C8.86667 12.0228 8.67763 12.2182 8.44444 12.2182H3.8C3.56682 12.2182 3.37778 12.0228 3.37778 11.7818Z" fill="black"/>
<path d="M3.8 15.7091C3.56682 15.7091 3.37778 15.9045 3.37778 16.1455C3.37778 16.3865 3.56682 16.5818 3.8 16.5818H10.1333C10.3665 16.5818 10.5556 16.3865 10.5556 16.1455C10.5556 15.9045 10.3665 15.7091 10.1333 15.7091H3.8Z" fill="black"/>
<path fill-rule="evenodd" clip-rule="evenodd" d="M0 1.74545C0 0.781467 0.756142 0 1.68889 0H17.3111C18.2439 0 19 0.781467 19 1.74545V22.2545C19 23.2185 18.2439 24 17.3111 24H1.68889C0.756142 24 0 23.2185 0 22.2545V1.74545ZM1.68889 0.872727H17.3111C17.7775 0.872727 18.1556 1.26346 18.1556 1.74545V22.2545C18.1556 22.7365 17.7775 23.1273 17.3111 23.1273H1.68889C1.22251 23.1273 0.844444 22.7365 0.844444 22.2545V1.74545C0.844444 1.26346 1.22251 0.872727 1.68889 0.872727Z" fill="black"/>
</svg>
