<svg width="19" height="24" viewBox="0 0 19 24" fill="none" xmlns="http://www.w3.org/2000/svg">
<path d="M3.97674 4.37971C3.97674 4.13782 4.17457 3.94174 4.4186 3.94174H6.62791C6.87194 3.94174 7.06977 4.13782 7.06977 4.37971C7.06977 4.6216 6.87194 4.81768 6.62791 4.81768H4.4186C4.17457 4.81768 3.97674 4.6216 3.97674 4.37971Z" fill="black"/>
<path d="M4.4186 8.75942C4.17457 8.75942 3.97674 8.9555 3.97674 9.19739C3.97674 9.43928 4.17457 9.63536 4.4186 9.63536H7.95349C8.19752 9.63536 8.39535 9.43928 8.39535 9.19739C8.39535 8.9555 8.19752 8.75942 7.95349 8.75942H4.4186Z" fill="black"/>
<path d="M3.97674 13.5771C3.97674 13.3352 4.17457 13.1391 4.4186 13.1391H7.95349C8.19752 13.1391 8.39535 13.3352 8.39535 13.5771C8.39535 13.819 8.19752 14.0151 7.95349 14.0151H4.4186C4.17457 14.0151 3.97674 13.819 3.97674 13.5771Z" fill="black"/>
<path d="M4.4186 17.5188C4.17457 17.5188 3.97674 17.7149 3.97674 17.9568C3.97674 18.1987 4.17457 18.3948 4.4186 18.3948H7.06977C7.3138 18.3948 7.51163 18.1987 7.51163 17.9568C7.51163 17.7149 7.3138 17.5188 7.06977 17.5188H4.4186Z" fill="black"/>
<path d="M12.814 17.9568C12.814 17.7149 13.0118 17.5188 13.2558 17.5188H14.5814C14.8254 17.5188 15.0233 17.7149 15.0233 17.9568C15.0233 18.1987 14.8254 18.3948 14.5814 18.3948H13.2558C13.0118 18.3948 12.814 18.1987 12.814 17.9568Z" fill="black"/>
<path d="M13.2558 13.1391C13.0118 13.1391 12.814 13.3352 12.814 13.5771C12.814 13.819 13.0118 14.0151 13.2558 14.0151H14.5814C14.8254 14.0151 15.0233 13.819 15.0233 13.5771C15.0233 13.3352 14.8254 13.1391 14.5814 13.1391H13.2558Z" fill="black"/>
<path d="M12.814 9.19739C12.814 8.9555 13.0118 8.75942 13.2558 8.75942H14.5814C14.8254 8.75942 15.0233 8.9555 15.0233 9.19739C15.0233 9.43928 14.8254 9.63536 14.5814 9.63536H13.2558C13.0118 9.63536 12.814 9.43928 12.814 9.19739Z" fill="black"/>
<path d="M13.2558 4.37971C13.0118 4.37971 12.814 4.57579 12.814 4.81768C12.814 5.05957 13.0118 5.25565 13.2558 5.25565H14.5814C14.8254 5.25565 15.0233 5.05957 15.0233 4.81768C15.0233 4.57579 14.8254 4.37971 14.5814 4.37971H13.2558Z" fill="black"/>
<path fill-rule="evenodd" clip-rule="evenodd" d="M1.76744 0C0.791312 0 0 0.784346 0 1.75188V23.2373C0 23.5936 0.406234 23.8008 0.698686 23.5937L2.8362 22.0804C2.98983 21.9716 3.19621 21.9716 3.34985 22.0804L5.93788 23.9127C6.08726 24.0185 6.28706 24.0217 6.43981 23.9207L9.2549 22.0605C9.40332 21.9624 9.59668 21.9624 9.7451 22.0605L12.5689 23.9264C12.7173 24.0245 12.9106 24.0245 13.0591 23.9264L15.8644 22.0727C16.0219 21.9686 16.2289 21.9755 16.3789 22.0899L18.2887 23.5461C18.5793 23.7676 19 23.5623 19 23.1989V1.75188C19 0.784346 18.2087 0 17.2326 0H1.76744ZM17.2326 0.875942H1.76744C1.27938 0.875942 0.883721 1.26812 0.883721 1.75188V22.3863L2.32255 21.3676C2.78345 21.0413 3.4026 21.0413 3.8635 21.3676L6.20336 23.0242L8.7647 21.3317C9.20996 21.0375 9.79004 21.0375 10.2353 21.3317L12.814 23.0357L15.3742 21.3438C15.8468 21.0316 16.4676 21.0524 16.9177 21.3956L18.1163 22.3095V1.75188C18.1163 1.26812 17.7206 0.875942 17.2326 0.875942Z" fill="black"/>
</svg>
